<?xml version="1.0" encoding="UTF-8"?>
<svg id="Ebene_1" data-name="Ebene 1" xmlns="http://www.w3.org/2000/svg" version="1.1" viewBox="0 0 500 500">
  <circle cx="192.473" cy="126.942" r="30.39" transform="translate(1.538 256.186) rotate(-67.5)" fill="#fff" stroke-width="0"/>
  <path d="M278.656,92.221c-15.371-2.885-29.619,8.77-29.619,24.41,0,12.012,8.6,22.241,20.405,24.454,52.61,9.864,92.205,57.12,90.037,113.022-2.154,55.552-50.534,103.93-106.086,106.081-55.901,2.165-103.155-37.431-113.017-90.041-2.214-11.81-12.446-20.414-24.462-20.414h0c-15.442,0-27.304,13.952-24.503,29.139,13.76,74.612,79.37,131.286,157.938,131.13,88.703-.176,159.946-71.566,159.946-160.269,0-78.251-56.373-143.575-130.639-157.512Z" fill="#fff" stroke-width="0"/>
  <circle cx="126.009" cy="193.327" r="30.391" fill="#fff" stroke-width="0"/>
</svg>